<svg height="100" viewBox="0 0 100 100" width="100" xmlns="http://www.w3.org/2000/svg"><g fill="#686461"><path d="m50 100a50 50 0 1 0 -50-50 50.06 50.06 0 0 0 50 50zm-.67-94.36c24.24 3 45 19.66 45 43.82s-22.08 41.33-45 43.82c-24.67 2.72-43.16-19.4-43.16-43.56s18.53-47.13 43.16-44.08z"/><path d="m31.54 27a4.58 4.58 0 0 0 -4.54 4.55v36.9a4.58 4.58 0 0 0 4.54 4.55h36.92a4.58 4.58 0 0 0 4.54-4.55v-36.9a4.58 4.58 0 0 0 -4.54-4.55zm34.59 11.48a4.61 4.61 0 1 0 -4.61-4.6 4.6 4.6 0 0 0 4.61 4.6zm-16.13 25.34a13.82 13.82 0 1 1 13.83-13.82 13.83 13.83 0 0 1 -13.83 13.82zm0-4.61a9.21 9.21 0 1 0 -9.22-9.21 9.21 9.21 0 0 0 9.22 9.21z" fill-rule="evenodd"/></g></svg>